<?xml version="1.0" encoding="UTF-8"?>
<COLLADA xmlns="http://www.collada.org/2005/11/COLLADASchema" version="1.4.1">
    <asset>
        <contributor>
            <author>VCGLab</author>
            <authoring_tool>VCGLib | MeshLab</authoring_tool>
        </contributor>
        <created>jue. jul. 3 22:15:51 2025 GMT</created>
        <modified>jue. jul. 3 22:15:51 2025 GMT</modified>
        <up_axis>Y_UP</up_axis>
    </asset>
    <library_images>
        <image id="texture0" name="texture0">
            <init_from>cardboard_box.png</init_from>
        </image>
        <image id="texture1" name="texture1">
            <init_from>Bois_palette.jpg</init_from>
        </image>
    </library_images>
    <library_materials>
        <material id="material0" name="material0">
            <instance_effect url="#material0-fx"/>
        </material>
        <material id="material1" name="material1">
            <instance_effect url="#material1-fx"/>
        </material>
    </library_materials>
    <library_effects>
        <effect id="material0-fx">
            <profile_COMMON>
                <newparam sid="texture0-surface">
                    <surface type="2D">
                        <init_from>texture0</init_from>
                        <format>A8R8G8B8</format>
                    </surface>
                </newparam>
                <newparam sid="texture0-sampler">
                    <sampler2D>
                        <source>texture0-surface</source>
                        <minfilter>LINEAR</minfilter>
                        <magfilter>LINEAR</magfilter>
                    </sampler2D>
                </newparam>
                <technique sid="common">
                    <blinn>
                        <diffuse>
                            <texture texture="texture0-sampler" texcoord="UVSET0"/>
                        </diffuse>
                    </blinn>
                </technique>
            </profile_COMMON>
        </effect>
        <effect id="material1-fx">
            <profile_COMMON>
                <newparam sid="texture1-surface">
                    <surface type="2D">
                        <init_from>texture1</init_from>
                        <format>R8G8B8</format>
                    </surface>
                </newparam>
                <newparam sid="texture1-sampler">
                    <sampler2D>
                        <source>texture1-surface</source>
                        <minfilter>LINEAR</minfilter>
                        <magfilter>LINEAR</magfilter>
                    </sampler2D>
                </newparam>
                <technique sid="common">
                    <blinn>
                        <diffuse>
                            <texture texture="texture1-sampler" texcoord="UVSET0"/>
                        </diffuse>
                    </blinn>
                </technique>
            </profile_COMMON>
        </effect>
    </library_effects>
    <library_geometries>
        <geometry id="shape0-lib" name="shape0">
            <mesh>
                <source id="shape0-lib-positions" name="position">
                    <float_array id="shape0-lib-positions-array" count="648">-0.5 -0.4 0.144 -0.5 -0.2 0.144 -0.5 -0.4 0.444001 0 -0.4 0.144 -0.25 -0.2 0.144 -0.25 -0.4 0.144 0 -0.4 0.444001 -0.25 -0.4 0.444001 -0.25 -0.2 0.444001 -0.5 0 0.144 -0.25 0 0.144 -0.5 0 0.444001 -0.25 0 0.444001 -0.5 -0.2 0.444001 0 0 0.144 0 -0.2 0.144 0 0 0.444001 0 -0.2 0.444001 -0.5 0.2 0.144 -0.25 0.2 0.144 -0.25 0.2 0.444001 -0.5 0.4 0.144 -0.25 0.4 0.144 -0.5 0.4 0.444001 -0.25 0.4 0.444001 -0.5 0.2 0.444001 0 0.4 0.144 0 0.2 0.144 0 0.4 0.444001 0 0.2 0.444001 0.5 0 0.144 0.25 0.2 0.144 0.25 0 0.144 0.5 0 0.444001 0.25 0 0.444001 0.25 0.2 0.444001 0.25 0.4 0.144 0.25 0.4 0.444001 0.5 0.4 0.144 0.5 0.2 0.144 0.5 0.4 0.444001 0.5 0.2 0.444001 0.5 -0.4 0.144 0.25 -0.2 0.144 0.25 -0.4 0.144 0.5 -0.4 0.444001 0.25 -0.4 0.444001 0.25 -0.2 0.444001 0.5 -0.2 0.144 0.5 -0.2 0.444001 0.0725 -0.299371 0.022 0.0725 -0.4 0.022 -0.0724999 -0.299371 0.022 -0.0724999 -0.4 0.022 0.0725 -0.299371 0.1 0.0725 -0.4 0.1 -0.0724999 -0.299371 0.1 -0.0724999 -0.4 0.1 0.0725 0.299371 0.0219999 0.0725 0.4 0.0219999 -0.0724999 0.299371 0.0219999 -0.0724999 0.4 0.0219999 0.0725 0.299371 0.1 0.0725 0.4 0.1 -0.0724999 0.299371 0.1 -0.0724999 0.4 0.1 0.0725 0.072956 0.0219999 0.0725 -0.072956 0.022 -0.0725 0.072956 0.0219999 -0.0725 -0.072956 0.022 0.0725 0.072956 0.1 0.0725 -0.0729559 0.1 -0.0725 0.072956 0.1 -0.0725 -0.0729559 0.1 -0.455 0.072956 0.0219999 -0.455 -0.072956 0.022 -0.6 0.072956 0.0219999 -0.6 -0.072956 0.022 -0.455 0.072956 0.1 -0.455 -0.0729559 0.1 -0.6 0.072956 0.1 -0.6 -0.0729559 0.1 0.6 0.072956 0.0219999 0.6 -0.072956 0.022 0.455 0.072956 0.0219999 0.455 -0.072956 0.022 0.6 0.072956 0.1 0.6 -0.0729559 0.1 0.455 0.072956 0.1 0.455 -0.0729559 0.1 -0.455 -0.4 0.022 -0.6 -0.299371 0.022 -0.455 -0.299371 0.022 -0.455 -0.4 0.1 -0.6 -0.299371 0.1 -0.455 -0.299371 0.1 -0.455 0.4 0.0219999 -0.6 0.299371 0.0219999 -0.455 0.299371 0.0219999 -0.455 0.4 0.1 -0.6 0.299371 0.1 -0.455 0.299371 0.1 0.455 -0.4 0.022 0.6 -0.299371 0.022 0.455 -0.299371 0.022 0.455 -0.4 0.1 0.6 -0.299371 0.1 0.455 -0.299371 0.1 0.455 0.4 0.0219999 0.6 0.299371 0.0219999 0.455 0.299371 0.0219999 0.455 0.4 0.1 0.6 0.299371 0.1 0.455 0.299371 0.1 0.6 -0.384906 0.022 0.585 -0.4 0.022 0.585 -0.4 0.1 0.6 -0.384906 0.1 0.585 0.4 0.0219999 0.6 0.384906 0.0219999 0.6 0.384906 0.1 0.585 0.4 0.1 -0.6 0.384906 0.0219999 -0.585 0.4 0.0219999 -0.585 0.4 0.1 -0.6 0.384906 0.1 -0.585 -0.4 0.022 -0.6 -0.384906 0.022 -0.6 -0.384906 0.1 -0.585 -0.4 0.1 0.4545 -0.4 0.1 0.4545 0.4 0.1 0.4545 -0.4 0.122 0.4545 0.4 0.122 0.5995 -0.384906 0.1 0.5845 -0.4 0.1 0.5845 -0.4 0.122 0.5995 -0.384906 0.122 0.5845 0.4 0.1 0.5995 0.384906 0.1 0.5995 0.384906 0.122 0.5845 0.4 0.122 0.072 -0.4 0.1 -0.073 -0.4 0.1 -0.073 0.4 0.1 0.072 0.4 0.1 0.072 -0.4 0.122 -0.073 -0.4 0.122 -0.073 0.4 0.122 0.072 0.4 0.122 -0.455 -0.4 0.122 -0.455 0.4 0.122 -0.585 0.4 0.122 -0.6 0.384906 0.122 -0.6 -0.384906 0.122 -0.585 -0.4 0.122 0.6 0.254088 0.122 -0.6 0.254088 0.122 0.6 0.254088 0.144 -0.6 0.254088 0.144 0.585 0.4 0.122 0.6 0.384906 0.122 0.6 0.384906 0.144 0.585 0.4 0.144 -0.585 0.4 0.144 -0.6 0.384906 0.144 0.6 -0.299371 3.56878e-08 -0.6 -0.299371 3.56878e-08 0.6 -0.384906 4.58844e-08 0.585 -0.4 4.76837e-08 -0.585 -0.4 4.76837e-08 -0.6 -0.384906 4.58844e-08 0.6 0.072956 -8.69703e-09 0.6 -0.072956 8.69703e-09 -0.6 0.072956 -8.69703e-09 -0.6 -0.072956 8.69703e-09 0.6 -0.254088 0.122 -0.6 -0.254088 0.122 0.6 -0.254088 0.144 -0.6 -0.254088 0.144 0.6 -0.384906 0.122 0.585 -0.4 0.122 0.585 -0.4 0.144 0.6 -0.384906 0.144 -0.6 -0.384906 0.144 -0.585 -0.4 0.144 0.6 -0.113208 0.122 0.6 -0.213836 0.122 -0.6 -0.113208 0.122 -0.6 -0.213836 0.122 0.6 -0.113208 0.144 0.6 -0.213836 0.144 -0.6 -0.113208 0.144 -0.6 -0.213836 0.144 0.6 0.299371 -3.56878e-08 -0.6 0.299371 -3.56878e-08 0.585 0.4 -4.76837e-08 0.6 0.384906 -4.58844e-08 -0.6 0.384906 -4.58844e-08 -0.585 0.4 -4.76837e-08 0.6 0.213836 0.122 0.6 0.113208 0.122 -0.6 0.213836 0.122 -0.6 0.113208 0.122 0.6 0.213836 0.144 0.6 0.113208 0.144 -0.6 0.213836 0.144 -0.6 0.113208 0.144 0.6 0.072956 0.122 0.6 -0.0729559 0.122 -0.6 0.072956 0.122 -0.6 -0.0729559 0.122 0.6 0.072956 0.144 0.6 -0.0729559 0.144 -0.6 0.072956 0.144 -0.6 -0.0729559 0.144</float_array>
                    <technique_common>
                        <accessor count="216" source="#shape0-lib-positions-array" stride="3">
                            <param name="X" type="float"/>
                            <param name="Y" type="float"/>
                            <param name="Z" type="float"/>
                        </accessor>
                    </technique_common>
                </source>
                <source id="shape0-lib-normals" name="normal">
                    <float_array id="shape0-lib-normals-array" count="1164">0 0 -1 0 0 -1 0 0 1 0 0 1 0 -1 0 0 -1 0 -1 0 0 -1 0 0 0 0 -1 0 0 -1 0 0 1 0 0 1 0 -1 0 0 -1 0 1 0 0 1 0 0 0 0 -1 0 0 -1 0 0 1 0 0 1 0 1 0 0 1 0 -1 0 0 -1 0 0 0 0 -1 0 0 -1 0 0 1 0 0 1 0 1 0 0 1 0 1 0 0 1 0 0 0 0 -1 0 0 -1 0 0 1 0 0 1 0 -1 0 0 -1 0 -1 0 0 -1 0 0 0 0 -1 0 0 -1 0 0 1 0 0 1 0 -1 0 0 -1 0 1 0 0 1 0 0 0 0 -1 0 0 -1 0 0 1 0 0 1 0 1 0 0 1 0 -1 0 0 -1 0 0 0 0 -1 0 0 -1 0 0 1 0 0 1 0 1 0 0 1 0 1 0 0 1 0 0 0 0 -1 0 0 -1 0 0 1 0 0 1 0 -1 0 0 -1 0 -1 0 0 -1 0 0 0 0 -1 0 0 -1 0 0 1 0 0 1 0 -1 0 0 -1 0 1 0 0 1 0 0 0 0 -1 0 0 -1 0 0 1 0 0 1 0 1 0 0 1 0 -1 0 0 -1 0 0 0 0 -1 0 0 -1 0 0 1 0 0 1 0 1 0 0 1 0 1 0 0 1 0 0 0 0 -1 0 0 -1 0 0 1 0 0 1 0 -1 0 0 -1 0 -1 0 0 -1 0 0 0 0 -1 0 0 -1 0 0 1 0 0 1 0 -1 0 0 -1 0 1 0 0 1 0 0 0 0 -1 0 0 -1 0 0 1 0 0 1 0 1 0 0 1 0 -1 0 0 -1 0 0 0 0 -1 0 0 -1 0 0 1 0 0 1 0 1 0 0 1 0 1 0 0 1 0 0 0 1 0 -1 0 0 0 0 -1 0 -1 0 0.709313 -0.704894 0 0 0 1 0.709313 0.704894 0 1 0 0 0 -1 0 -1 0 0 0 1 0 1 0 0 0 0 -1 0 0 1 0 0 -1 0 0 1 0 -1 0 1 0 0 -0.709311 0.704895 0 0 1 0 -0.709311 -0.704895 0 -1 0 0 0 0 -1 0 -1 0 0 1 0 1 0 0 0.709311 0.704895 0 0 0 1 -0.709311 0.704895 0 -1 0 0 0 0 1 -1 0 0 0 -1 0 0 1 0 0.709311 -0.704895 0 1 0 0 -0.709311 -0.704895 0 0 -1.19209e-07 -1 0 -1.19209e-07 -1 0 6.89339e-07 1 0 -1 0 1 0 0 -1 0 0 0 1 0 0 0 1 -1 0 0 0 -1 0 0 1 0 0.709311 -0.704895 0 1 0 0 -0.709311 -0.704895 0 0 0 -1 0 0 -1 0 0 1 0 -1 0 1 0 0 -1 0 0 0 1 0 0 -1.19209e-07 -1 0 -1 0 0 1 0 1 0 0 0.709311 0.704895 0 0 0 1 -0.709311 0.704895 0 -1 0 0 0 0 -1 0 0 1 0 -1 0 1 0 0 -1 0 0 0 1 0 0 0 -1 0 0 1 0 -1 0 1 0 0 -1 0 0 0 1 0 0 1 0 -1 0 0 0 0 -1 0 0 -1 0 0 -1 0 -1 0 0.709313 -0.704894 0 0 0 1 0 0 1 0 0 1 0.709313 0.704894 0 1 0 0 0 -1 0 -1 0 0 0 1 0 1 0 0 0 0 -1 0 0 1 0 0 -1 0 0 -1 0 0 -1 0 0 1 0 0 1 0 0 1 0 -1 0 1 0 0 -0.709311 0.704895 0 0 1 0 -0.709311 -0.704895 0 -1 0 0 0 0 -1 0 0 -1 0 0 -1 0 -1 0 0 1 0 1 0 0 0.709311 0.704895 0 0 0 1 0 0 1 0 0 1 -0.709311 0.704895 0 -1 0 0 0 0 1 0 0 1 0 0 1 -1 0 0 0 -1 0 0 1 0 0.709311 -0.704895 0 1 0 0 -0.709311 -0.704895 0 3.46126e-12 -1.1921e-07 -1 0 -1.19209e-07 -1 -3.46126e-12 -1.1921e-07 -1 0 -1.19209e-07 -1 0 6.89339e-07 1 0 -1 0 1 0 0 -1 0 0 0 1 0 0 0 1 0 0 1 0 0 1 -1 0 0 0 -1 0 0 1 0 0.709311 -0.704895 0 1 0 0 -0.709311 -0.704895 0 0 0 -1 0 0 -1 0 0 -1 0 0 -1 0 0 1 0 -1 0 1 0 0 -1 0 0 0 1 0 -3.46126e-12 -1.1921e-07 -1 3.46126e-12 -1.1921e-07 -1 0 -1.19209e-07 -1 0 -1 0 0 1 0 1 0 0 0.709311 0.704895 0 0 0 1 0 0 1 0 0 1 -0.709311 0.704895 0 -1 0 0 0 0 -1 0 0 1 0 -1 0 1 0 0 -1 0 0 0 1 0 0 0 -1 0 0 1 0 -1 0 1 0 0 -1 0 0 0 1 0 0 -1 0 1 0 0 -1 0 0 0 1 0 0 1 0 1 0 0 -1 0 0 0 -1 0 0 -1 1.33728e-06 1 0 0 -1 0 0 0 1 0 0 -1 1.33728e-06 1 0 0 -1 0 0 0 1 0 0 -1 1.33728e-06 1 0 0 -1 0 0 0 1 0 0 -1 0 0 1 0 1 0 0 0 -1 0 1 0 0 -1 0 0 0 1 0 -1 0 0 1 0 0 0 1 0 0 -1 0 -1 0 0 0.709311 -0.704895 0 0 -1 0 0.709311 0.704895 0 1 0 0 -0.709311 0.704895 0 0 1 0 -0.709311 -0.704895 0 -1 0 0 0 -1 0 1 0 0 -1 0 0 0 1 0 0 1 0 1 0 0 -1 0 0 0 -1 0 0 -1 1.33728e-06 1 0 0 -1 0 0 0 1 0 0 -1 1.33728e-06 1 0 0 -1 0 0 0 1 0 0 -1 1.33728e-06 1 0 0 -1 0 0 0 1 0 0 -1 0 0 1 0 1 0 0 0 -1 0 1 0 0 -1 0 0 0 1 0 -1 0 0 1 0 0 0 1 0 0 -1 0 -1 0 0 0.709311 -0.704895 0 0 -1 0 0.709311 0.704895 0 1 0 0 -0.709311 0.704895 0 0 1 0 -0.709311 -0.704895 0 -1 0 0</float_array>
                    <technique_common>
                        <accessor count="388" source="#shape0-lib-normals-array" stride="3">
                            <param name="X" type="float"/>
                            <param name="Y" type="float"/>
                            <param name="Z" type="float"/>
                        </accessor>
                    </technique_common>
                </source>
                <source id="shape0-lib-map" name="map">
                    <float_array id="shape0-lib-map-array" count="2328">0.589894 0.002 0.871072 0.002 0.871072 0.283178 0.589894 0.002 0.871072 0.283178 0.589894 0.283178 0.564357 0.319731 0.845535 0.319731 0.845535 0.60091 0.564357 0.319731 0.845535 0.60091 0.564357 0.60091 0.00200009 0.319731 0.002 0.0385531 0.564357 0.0385529 0.00200009 0.319731 0.564357 0.0385529 0.564357 0.319731 0.00200009 0.60091 0.00200009 0.319731 0.564357 0.319731 0.00200009 0.60091 0.564357 0.319731 0.564357 0.60091 0.589894 0.002 0.589894 0.283178 0.871072 0.283178 0.589894 0.002 0.871072 0.283178 0.871072 0.002 0.564357 0.319731 0.564357 0.60091 0.845535 0.60091 0.564357 0.319731 0.845535 0.60091 0.845535 0.319731 0.00200009 0.319731 0.564357 0.319731 0.564357 0.0385529 0.00200009 0.319731 0.564357 0.0385529 0.002 0.0385531 0.00200009 0.60091 0.564357 0.60091 0.564357 0.319731 0.00200009 0.60091 0.564357 0.319731 0.00200009 0.319731 0.589894 0.002 0.589894 0.283178 0.871072 0.283178 0.589894 0.002 0.871072 0.283178 0.871072 0.002 0.564357 0.319731 0.564357 0.60091 0.845535 0.60091 0.564357 0.319731 0.845535 0.60091 0.845535 0.319731 0.00200009 0.319731 0.564357 0.319731 0.564357 0.0385529 0.00200009 0.319731 0.564357 0.0385529 0.002 0.0385531 0.00200009 0.60091 0.564357 0.60091 0.564357 0.319731 0.00200009 0.60091 0.564357 0.319731 0.00200009 0.319731 0.589894 0.002 0.871072 0.002 0.871072 0.283178 0.589894 0.002 0.871072 0.283178 0.589894 0.283178 0.564357 0.319731 0.845535 0.319731 0.845535 0.60091 0.564357 0.319731 0.845535 0.60091 0.564357 0.60091 0.00200009 0.319731 0.002 0.0385531 0.564357 0.0385529 0.00200009 0.319731 0.564357 0.0385529 0.564357 0.319731 0.00200009 0.60091 0.00200009 0.319731 0.564357 0.319731 0.00200009 0.60091 0.564357 0.319731 0.564357 0.60091 0.589894 0.002 0.871072 0.002 0.871072 0.283178 0.589894 0.002 0.871072 0.283178 0.589894 0.283178 0.564357 0.319731 0.845535 0.319731 0.845535 0.60091 0.564357 0.319731 0.845535 0.60091 0.564357 0.60091 0.00200009 0.319731 0.002 0.0385531 0.564357 0.0385529 0.00200009 0.319731 0.564357 0.0385529 0.564357 0.319731 0.00200009 0.60091 0.00200009 0.319731 0.564357 0.319731 0.00200009 0.60091 0.564357 0.319731 0.564357 0.60091 0.589894 0.002 0.589894 0.283178 0.871072 0.283178 0.589894 0.002 0.871072 0.283178 0.871072 0.002 0.564357 0.319731 0.564357 0.60091 0.845535 0.60091 0.564357 0.319731 0.845535 0.60091 0.845535 0.319731 0.00200009 0.319731 0.564357 0.319731 0.564357 0.0385529 0.00200009 0.319731 0.564357 0.0385529 0.002 0.0385531 0.00200009 0.60091 0.564357 0.60091 0.564357 0.319731 0.00200009 0.60091 0.564357 0.319731 0.00200009 0.319731 0.589894 0.002 0.589894 0.283178 0.871072 0.283178 0.589894 0.002 0.871072 0.283178 0.871072 0.002 0.564357 0.319731 0.564357 0.60091 0.845535 0.60091 0.564357 0.319731 0.845535 0.60091 0.845535 0.319731 0.00200009 0.319731 0.564357 0.319731 0.564357 0.0385529 0.00200009 0.319731 0.564357 0.0385529 0.002 0.0385531 0.00200009 0.60091 0.564357 0.60091 0.564357 0.319731 0.00200009 0.60091 0.564357 0.319731 0.00200009 0.319731 0.589894 0.002 0.871072 0.002 0.871072 0.283178 0.589894 0.002 0.871072 0.283178 0.589894 0.283178 0.564357 0.319731 0.845535 0.319731 0.845535 0.60091 0.564357 0.319731 0.845535 0.60091 0.564357 0.60091 0.00200009 0.319731 0.002 0.0385531 0.564357 0.0385529 0.00200009 0.319731 0.564357 0.0385529 0.564357 0.319731 0.00200009 0.60091 0.00200009 0.319731 0.564357 0.319731 0.00200009 0.60091 0.564357 0.319731 0.564357 0.60091 0.589894 0.002 0.871072 0.002 0.871072 0.283178 0.589894 0.002 0.871072 0.283178 0.589894 0.283178 0.564357 0.319731 0.845535 0.319731 0.845535 0.60091 0.564357 0.319731 0.845535 0.60091 0.564357 0.60091 0.00200009 0.319731 0.002 0.0385531 0.564357 0.0385529 0.00200009 0.319731 0.564357 0.0385529 0.564357 0.319731 0.00200009 0.60091 0.00200009 0.319731 0.564357 0.319731 0.00200009 0.60091 0.564357 0.319731 0.564357 0.60091 0.589894 0.002 0.589894 0.283178 0.871072 0.283178 0.589894 0.002 0.871072 0.283178 0.871072 0.002 0.564357 0.319731 0.564357 0.60091 0.845535 0.60091 0.564357 0.319731 0.845535 0.60091 0.845535 0.319731 0.00200009 0.319731 0.564357 0.319731 0.564357 0.0385529 0.00200009 0.319731 0.564357 0.0385529 0.002 0.0385531 0.00200009 0.60091 0.564357 0.60091 0.564357 0.319731 0.00200009 0.60091 0.564357 0.319731 0.00200009 0.319731 0.589894 0.002 0.589894 0.283178 0.871072 0.283178 0.589894 0.002 0.871072 0.283178 0.871072 0.002 0.564357 0.319731 0.564357 0.60091 0.845535 0.60091 0.564357 0.319731 0.845535 0.60091 0.845535 0.319731 0.00200009 0.319731 0.564357 0.319731 0.564357 0.0385529 0.00200009 0.319731 0.564357 0.0385529 0.002 0.0385531 0.00200009 0.60091 0.564357 0.60091 0.564357 0.319731 0.00200009 0.60091 0.564357 0.319731 0.00200009 0.319731 0.589894 0.002 0.871072 0.002 0.871072 0.283178 0.589894 0.002 0.871072 0.283178 0.589894 0.283178 0.564357 0.319731 0.845535 0.319731 0.845535 0.60091 0.564357 0.319731 0.845535 0.60091 0.564357 0.60091 0.00200009 0.319731 0.002 0.0385531 0.564357 0.0385529 0.00200009 0.319731 0.564357 0.0385529 0.564357 0.319731 0.00200009 0.60091 0.00200009 0.319731 0.564357 0.319731 0.00200009 0.60091 0.564357 0.319731 0.564357 0.60091 0.589894 0.002 0.871072 0.002 0.871072 0.283178 0.589894 0.002 0.871072 0.283178 0.589894 0.283178 0.564357 0.319731 0.845535 0.319731 0.845535 0.60091 0.564357 0.319731 0.845535 0.60091 0.564357 0.60091 0.00200009 0.319731 0.002 0.0385531 0.564357 0.0385529 0.00200009 0.319731 0.564357 0.0385529 0.564357 0.319731 0.00200009 0.60091 0.00200009 0.319731 0.564357 0.319731 0.00200009 0.60091 0.564357 0.319731 0.564357 0.60091 0.589894 0.002 0.589894 0.283178 0.871072 0.283178 0.589894 0.002 0.871072 0.283178 0.871072 0.002 0.564357 0.319731 0.564357 0.60091 0.845535 0.60091 0.564357 0.319731 0.845535 0.60091 0.845535 0.319731 0.00200009 0.319731 0.564357 0.319731 0.564357 0.0385529 0.00200009 0.319731 0.564357 0.0385529 0.002 0.0385531 0.00200009 0.60091 0.564357 0.60091 0.564357 0.319731 0.00200009 0.60091 0.564357 0.319731 0.00200009 0.319731 0.589894 0.002 0.589894 0.283178 0.871072 0.283178 0.589894 0.002 0.871072 0.283178 0.871072 0.002 0.564357 0.319731 0.564357 0.60091 0.845535 0.60091 0.564357 0.319731 0.845535 0.60091 0.845535 0.319731 0.00200009 0.319731 0.564357 0.319731 0.564357 0.0385529 0.00200009 0.319731 0.564357 0.0385529 0.002 0.0385531 0.00200009 0.60091 0.564357 0.60091 0.564357 0.319731 0.00200009 0.60091 0.564357 0.319731 0.00200009 0.319731 0.589894 0.002 0.871072 0.002 0.871072 0.283178 0.589894 0.002 0.871072 0.283178 0.589894 0.283178 0.564357 0.319731 0.845535 0.319731 0.845535 0.60091 0.564357 0.319731 0.845535 0.60091 0.564357 0.60091 0.00200009 0.319731 0.002 0.0385531 0.564357 0.0385529 0.00200009 0.319731 0.564357 0.0385529 0.564357 0.319731 0.00200009 0.60091 0.00200009 0.319731 0.564357 0.319731 0.00200009 0.60091 0.564357 0.319731 0.564357 0.60091 0.454475 0.860667 0.463291 0.887002 0.454475 0.887002 0.398004 0.697626 0.40682 0.860705 0.398004 0.860705 0.378585 0.423389 0.378585 0.680243 0.326574 0.428235 0.398004 0.860705 0.40682 0.88704 0.398004 0.88704 0.832881 0.814556 0.840514 0.82162 0.832881 0.82162 0.398004 0.680243 0.398004 0.423389 0.450015 0.675397 0.463291 0.854551 0.454475 0.860667 0.454475 0.854551 0.454475 0.697626 0.463291 0.854551 0.454475 0.854551 0.326574 0.860705 0.33539 0.890079 0.326574 0.890079 0.326574 0.697625 0.33539 0.860705 0.326574 0.860705 0.354809 0.860705 0.363625 0.890079 0.354809 0.890079 0.354809 0.697626 0.363625 0.860705 0.354809 0.860705 0.521444 0.423389 0.469434 0.680243 0.469434 0.423389 0.540864 0.680243 0.592874 0.423389 0.592874 0.680243 0.664304 0.428235 0.664304 0.675397 0.612293 0.680243 0.683723 0.675397 0.683723 0.428235 0.735734 0.423389 0.48271 0.860667 0.491526 0.887002 0.48271 0.887002 0.426239 0.697626 0.435055 0.860705 0.426239 0.860705 0.721282 0.78954 0.713649 0.782476 0.721282 0.782476 0.426239 0.860705 0.435055 0.88704 0.426239 0.88704 0.491526 0.854551 0.48271 0.860667 0.48271 0.854551 0.48271 0.697626 0.491526 0.854551 0.48271 0.854551 0.0097096 0.0611386 0.0681806 0.401696 0.00970954 0.406006 0.876909 0.693151 0.868094 0.450056 0.87691 0.450056 0.848674 0.693189 0.839858 0.456171 0.848674 0.456171 0.848674 0.450056 0.839858 0.423389 0.848674 0.423389 0.839858 0.456171 0.848674 0.450056 0.848674 0.456171 0.146071 0.0654495 0.146071 0.401696 0.0875997 0.406006 0.813462 0.797174 0.805829 0.79011 0.813462 0.79011 0.87691 0.450056 0.868094 0.423389 0.87691 0.423389 0.673156 0.0611386 0.673156 0.406006 0.632831 0.0654494 0.961615 0.440825 0.952799 0.423389 0.961615 0.423389 0.961615 0.683958 0.952799 0.44694 0.961615 0.44694 0.98985 0.68392 0.981034 0.440825 0.98985 0.440825 0.832881 0.79011 0.840514 0.797174 0.832881 0.797174 0.98985 0.440825 0.981034 0.423389 0.98985 0.423389 0.961615 0.440825 0.952799 0.44694 0.952799 0.440825 0.692575 0.0654495 0.7329 0.0611386 0.7329 0.406006 0.16549 0.0611386 0.223961 0.406006 0.16549 0.406006 0.301851 0.0611386 0.24338 0.406006 0.24338 0.0611386 0.763969 0.696228 0.755153 0.453133 0.763969 0.453133 0.792204 0.453133 0.783388 0.423389 0.792204 0.423389 0.763969 0.453133 0.755153 0.423389 0.763969 0.423389 0.792204 0.696228 0.783388 0.453133 0.792204 0.453133 0.379741 0.0611386 0.379741 0.406006 0.32127 0.0654494 0.849114 0.0878058 0.840298 0.0611386 0.849114 0.0611386 0.849114 0.330939 0.840298 0.0939214 0.849114 0.0939214 0.87735 0.330901 0.868534 0.0878057 0.87735 0.0878057 0.713649 0.806922 0.721282 0.813986 0.713649 0.813986 0.87735 0.0878057 0.868534 0.0611386 0.87735 0.0611386 0.849114 0.0878058 0.840298 0.0939214 0.840298 0.0878058 0.399161 0.0654495 0.457632 0.0611386 0.457632 0.406006 0.0875998 0.423389 0.127924 0.768256 0.0875997 0.768256 0.187668 0.423389 0.147343 0.768256 0.147343 0.423389 0.905145 0.686997 0.896329 0.443902 0.905145 0.443902 0.905585 0.0816516 0.896769 0.0611386 0.905585 0.0611386 0.905145 0.443902 0.896329 0.423389 0.905145 0.423389 0.905585 0.324747 0.896769 0.0816516 0.905585 0.0816516 0.752319 0.0611386 0.792644 0.401696 0.752319 0.406006 0.99029 0.32167 0.981474 0.0785749 0.99029 0.0785749 0.962055 0.321708 0.953239 0.0846905 0.962055 0.0846905 0.962055 0.0785748 0.953239 0.0611386 0.962055 0.0611386 0.953239 0.0846905 0.962055 0.0785748 0.962055 0.0846905 0.0500344 0.427699 0.0500344 0.763946 0.00970954 0.768256 0.813462 0.821619 0.805829 0.814556 0.813462 0.814556 0.99029 0.0785749 0.981474 0.0611386 0.99029 0.0611386 0.207087 0.423389 0.247411 0.768256 0.207087 0.768256 0.307155 0.423389 0.266831 0.768256 0.266831 0.423389 0.93338 0.686997 0.924564 0.443902 0.93338 0.443902 0.93382 0.0816516 0.925004 0.0611386 0.93382 0.0611386 0.93338 0.443902 0.924564 0.423389 0.93338 0.423389 0.93382 0.324747 0.925004 0.0816516 0.93382 0.0816516 0.477051 0.0611386 0.535522 0.406006 0.477051 0.406006 0.613412 0.0611386 0.554941 0.406006 0.554941 0.0611386 0.820439 0.696228 0.811623 0.453133 0.820439 0.453133 0.820879 0.0908827 0.812063 0.0611386 0.820879 0.0611386 0.820439 0.453133 0.811623 0.423389 0.820439 0.423389 0.820879 0.333978 0.812063 0.0908827 0.820879 0.0908827 0.454475 0.860667 0.463291 0.860667 0.463291 0.887002 0.398004 0.697626 0.40682 0.697626 0.40682 0.860705 0.326574 0.675397 0.326574 0.428235 0.378585 0.680243 0.331955 0.423389 0.378585 0.423389 0.326574 0.428235 0.378585 0.680243 0.331955 0.680243 0.326574 0.675397 0.398004 0.860705 0.40682 0.860705 0.40682 0.88704 0.832881 0.814556 0.840514 0.814556 0.840514 0.82162 0.450015 0.428235 0.450015 0.675397 0.398004 0.423389 0.444634 0.680243 0.398004 0.680243 0.450015 0.675397 0.398004 0.423389 0.444634 0.423389 0.450015 0.428235 0.463291 0.854551 0.463291 0.860667 0.454475 0.860667 0.454475 0.697626 0.463291 0.697626 0.463291 0.854551 0.326574 0.860705 0.33539 0.860705 0.33539 0.890079 0.326574 0.697625 0.33539 0.697625 0.33539 0.860705 0.354809 0.860705 0.363625 0.860705 0.363625 0.890079 0.354809 0.697626 0.363625 0.697626 0.363625 0.860705 0.521444 0.423389 0.521444 0.680243 0.469434 0.680243 0.540864 0.680243 0.540864 0.423389 0.592874 0.423389 0.612293 0.680243 0.612293 0.423389 0.664304 0.428235 0.658924 0.423389 0.664304 0.428235 0.612293 0.423389 0.664304 0.675397 0.658924 0.680243 0.612293 0.680243 0.735734 0.423389 0.735734 0.680243 0.683723 0.675397 0.689103 0.680243 0.683723 0.675397 0.735734 0.680243 0.683723 0.428235 0.689103 0.423389 0.735734 0.423389 0.48271 0.860667 0.491526 0.860667 0.491526 0.887002 0.426239 0.697626 0.435055 0.697626 0.435055 0.860705 0.721282 0.78954 0.713649 0.78954 0.713649 0.782476 0.426239 0.860705 0.435055 0.860705 0.435055 0.88704 0.491526 0.854551 0.491526 0.860667 0.48271 0.860667 0.48271 0.697626 0.491526 0.697626 0.491526 0.854551 0.062132 0.406006 0.00970954 0.406006 0.0681806 0.401696 0.0097096 0.0611386 0.062132 0.0611386 0.0681806 0.0654495 0.0681806 0.0654495 0.0681806 0.401696 0.0097096 0.0611386 0.876909 0.693151 0.868093 0.693151 0.868094 0.450056 0.848674 0.693189 0.839858 0.693189 0.839858 0.456171 0.848674 0.450056 0.839858 0.450056 0.839858 0.423389 0.839858 0.456171 0.839858 0.450056 0.848674 0.450056 0.0875997 0.406006 0.0875998 0.0611386 0.146071 0.0654495 0.140022 0.0611386 0.146071 0.0654495 0.0875998 0.0611386 0.146071 0.401696 0.140022 0.406006 0.0875997 0.406006 0.813462 0.797174 0.805829 0.797174 0.805829 0.79011 0.87691 0.450056 0.868094 0.450056 0.868094 0.423389 0.632831 0.401696 0.632831 0.0654494 0.673156 0.406006 0.63888 0.0611386 0.673156 0.0611386 0.632831 0.0654494 0.673156 0.406006 0.63888 0.406006 0.632831 0.401696 0.961615 0.440825 0.952799 0.440825 0.952799 0.423389 0.961615 0.683958 0.952799 0.683958 0.952799 0.44694 0.98985 0.68392 0.981034 0.68392 0.981034 0.440825 0.832881 0.79011 0.840514 0.79011 0.840514 0.797174 0.98985 0.440825 0.981034 0.440825 0.981034 0.423389 0.961615 0.440825 0.961615 0.44694 0.952799 0.44694 0.7329 0.406006 0.698624 0.406006 0.692575 0.401696 0.692575 0.401696 0.692575 0.0654495 0.7329 0.406006 0.698624 0.0611386 0.7329 0.0611386 0.692575 0.0654495 0.16549 0.0611386 0.223961 0.0611386 0.223961 0.406006 0.301851 0.0611386 0.301851 0.406006 0.24338 0.406006 0.763969 0.696228 0.755153 0.696228 0.755153 0.453133 0.792204 0.453133 0.783388 0.453133 0.783388 0.423389 0.763969 0.453133 0.755153 0.453133 0.755153 0.423389 0.792204 0.696228 0.783388 0.696228 0.783388 0.453133 0.32127 0.401696 0.32127 0.0654494 0.379741 0.406006 0.327319 0.0611386 0.379741 0.0611386 0.32127 0.0654494 0.379741 0.406006 0.327319 0.406006 0.32127 0.401696 0.849114 0.0878058 0.840298 0.0878058 0.840298 0.0611386 0.849114 0.330939 0.840298 0.330939 0.840298 0.0939214 0.87735 0.330901 0.868534 0.330901 0.868534 0.0878057 0.713649 0.806922 0.721282 0.806922 0.721282 0.813986 0.87735 0.0878057 0.868534 0.0878057 0.868534 0.0611386 0.849114 0.0878058 0.849114 0.0939214 0.840298 0.0939214 0.457632 0.406006 0.405209 0.406006 0.399161 0.401696 0.399161 0.401696 0.399161 0.0654495 0.457632 0.406006 0.405209 0.0611386 0.457632 0.0611386 0.399161 0.0654495 0.0875998 0.423389 0.127924 0.423389 0.127924 0.768256 0.187668 0.423389 0.187668 0.768256 0.147343 0.768256 0.905145 0.686997 0.896329 0.686997 0.896329 0.443902 0.905585 0.0816516 0.896769 0.0816516 0.896769 0.0611386 0.905145 0.443902 0.896329 0.443902 0.896329 0.423389 0.905585 0.324747 0.896769 0.324747 0.896769 0.0816516 0.786595 0.406006 0.752319 0.406006 0.792644 0.401696 0.752319 0.0611386 0.786596 0.0611386 0.792644 0.0654495 0.792644 0.0654495 0.792644 0.401696 0.752319 0.0611386 0.99029 0.32167 0.981474 0.32167 0.981474 0.0785749 0.962055 0.321708 0.953239 0.321708 0.953239 0.0846905 0.962055 0.0785748 0.953239 0.0785748 0.953239 0.0611386 0.953239 0.0846905 0.953239 0.0785748 0.962055 0.0785748 0.00970954 0.768256 0.0097096 0.423389 0.0500344 0.427699 0.0439858 0.423389 0.0500344 0.427699 0.0097096 0.423389 0.0500344 0.763946 0.0439858 0.768256 0.00970954 0.768256 0.813462 0.821619 0.805829 0.821619 0.805829 0.814556 0.99029 0.0785749 0.981474 0.0785749 0.981474 0.0611386 0.207087 0.423389 0.247412 0.423389 0.247411 0.768256 0.307155 0.423389 0.307155 0.768256 0.266831 0.768256 0.93338 0.686997 0.924564 0.686997 0.924564 0.443902 0.93382 0.0816516 0.925004 0.0816516 0.925004 0.0611386 0.93338 0.443902 0.924564 0.443902 0.924564 0.423389 0.93382 0.324747 0.925004 0.324747 0.925004 0.0816516 0.477051 0.0611386 0.535522 0.0611386 0.535522 0.406006 0.613412 0.0611386 0.613412 0.406006 0.554941 0.406006 0.820439 0.696228 0.811623 0.696228 0.811623 0.453133 0.820879 0.0908827 0.812063 0.0908827 0.812063 0.0611386 0.820439 0.453133 0.811623 0.453133 0.811623 0.423389 0.820879 0.333978 0.812063 0.333978 0.812063 0.0908827 0.694229 0.824013 0.662973 0.794639 0.694229 0.794639 0.0409663 0.806152 0.00970954 0.785638 0.0409663 0.785638 0.694229 0.794639 0.662973 0.774126 0.694229 0.774126 0.0409663 0.835526 0.00970954 0.806152 0.0409663 0.806152 0.0603855 0.835526 0.0916423 0.806152 0.0916423 0.835526 0.0603855 0.806152 0.0916423 0.785639 0.0916423 0.806152 0.111061 0.806152 0.142318 0.785639 0.142318 0.806152 0.111061 0.835526 0.142318 0.806152 0.142318 0.835526 0.542202 0.756743 0.510945 0.727369 0.542202 0.727369 0.592878 0.727369 0.561621 0.697625 0.592878 0.697625 0.542202 0.727369 0.510945 0.697625 0.542202 0.697626 0.592878 0.756743 0.561621 0.727369 0.592878 0.727369 0.786409 0.772728 0.755153 0.743354 0.786409 0.743354 0.643553 0.727369 0.612297 0.697626 0.643553 0.697626 0.786409 0.743354 0.755153 0.71361 0.786409 0.71361 0.643553 0.756743 0.612297 0.727369 0.643553 0.727369 0.694229 0.756743 0.662973 0.727369 0.694229 0.727369 0.837085 0.743354 0.805829 0.71361 0.837085 0.71361 0.694229 0.727369 0.662973 0.697626 0.694229 0.697626 0.837085 0.772728 0.805829 0.743354 0.837085 0.743354 0.812063 0.374912 0.84332 0.401247 0.812063 0.401247 0.561621 0.794639 0.592878 0.824013 0.561621 0.824013 0.561621 0.774126 0.592878 0.794639 0.561621 0.794639 0.298088 0.803075 0.266831 0.832449 0.266831 0.803075 0.192994 0.785639 0.161737 0.806152 0.161737 0.785639 0.298088 0.785639 0.266831 0.803075 0.266831 0.785639 0.786409 0.807547 0.755153 0.836921 0.755153 0.807547 0.24367 0.785639 0.212413 0.806152 0.212413 0.785639 0.786409 0.79011 0.755153 0.807547 0.755153 0.79011 0.510945 0.797678 0.542202 0.824013 0.510945 0.824013 0.612297 0.794639 0.643553 0.824013 0.612297 0.824013 0.612297 0.774126 0.643553 0.794639 0.612297 0.794639 0.721282 0.722669 0.713649 0.697626 0.721282 0.697626 0.24367 0.806152 0.212413 0.832487 0.212413 0.806152 0.542202 0.791562 0.510945 0.797678 0.510945 0.791562 0.510945 0.774126 0.542202 0.791562 0.510945 0.791562 0.721282 0.765094 0.713649 0.740051 0.721282 0.740051 0.192994 0.806152 0.161737 0.832487 0.161737 0.806152 0.84332 0.368796 0.812063 0.374912 0.812063 0.368796 0.812063 0.35136 0.84332 0.368796 0.812063 0.368796 0.694229 0.824013 0.662973 0.824013 0.662973 0.794639 0.0409663 0.806152 0.00970954 0.806152 0.00970954 0.785638 0.694229 0.794639 0.662973 0.794639 0.662973 0.774126 0.0409663 0.835526 0.00970954 0.835526 0.00970954 0.806152 0.0603855 0.835526 0.0603855 0.806152 0.0916423 0.806152 0.0603855 0.806152 0.0603855 0.785639 0.0916423 0.785639 0.111061 0.806152 0.111061 0.785639 0.142318 0.785639 0.111061 0.835526 0.111061 0.806152 0.142318 0.806152 0.542202 0.756743 0.510945 0.756743 0.510945 0.727369 0.592878 0.727369 0.561621 0.727369 0.561621 0.697625 0.542202 0.727369 0.510945 0.727369 0.510945 0.697625 0.592878 0.756743 0.561621 0.756743 0.561621 0.727369 0.786409 0.772728 0.755153 0.772728 0.755153 0.743354 0.643553 0.727369 0.612297 0.727369 0.612297 0.697626 0.786409 0.743354 0.755153 0.743354 0.755153 0.71361 0.643553 0.756743 0.612297 0.756743 0.612297 0.727369 0.694229 0.756743 0.662973 0.756743 0.662973 0.727369 0.837085 0.743354 0.805829 0.743354 0.805829 0.71361 0.694229 0.727369 0.662973 0.727369 0.662973 0.697626 0.837085 0.772728 0.805829 0.772728 0.805829 0.743354 0.812063 0.374912 0.84332 0.374912 0.84332 0.401247 0.561621 0.794639 0.592878 0.794639 0.592878 0.824013 0.561621 0.774126 0.592878 0.774126 0.592878 0.794639 0.298088 0.803075 0.298088 0.832449 0.266831 0.832449 0.192994 0.785639 0.192994 0.806152 0.161737 0.806152 0.298088 0.785639 0.298088 0.803075 0.266831 0.803075 0.786409 0.807547 0.786409 0.836921 0.755153 0.836921 0.24367 0.785639 0.24367 0.806152 0.212413 0.806152 0.786409 0.79011 0.786409 0.807547 0.755153 0.807547 0.510945 0.797678 0.542202 0.797678 0.542202 0.824013 0.612297 0.794639 0.643553 0.794639 0.643553 0.824013 0.612297 0.774126 0.643553 0.774126 0.643553 0.794639 0.721282 0.722669 0.713649 0.722669 0.713649 0.697626 0.24367 0.806152 0.24367 0.832487 0.212413 0.832487 0.542202 0.791562 0.542202 0.797678 0.510945 0.797678 0.510945 0.774126 0.542202 0.774126 0.542202 0.791562 0.721282 0.765094 0.713649 0.765094 0.713649 0.740051 0.192994 0.806152 0.192994 0.832487 0.161737 0.832487 0.84332 0.368796 0.84332 0.374912 0.812063 0.374912 0.812063 0.35136 0.84332 0.35136 0.84332 0.368796</float_array>
                    <technique_common>
                        <accessor count="1164" source="#shape0-lib-map-array" stride="2">
                            <param name="U" type="float"/>
                            <param name="V" type="float"/>
                        </accessor>
                    </technique_common>
                </source>
                <vertices id="shape0-lib-vertices">
                    <input semantic="POSITION" source="#shape0-lib-positions"/>
                </vertices>
                <triangles count="128" material="material0">
                    <input offset="0" semantic="VERTEX" source="#shape0-lib-vertices"/>
                    <input offset="1" semantic="NORMAL" source="#shape0-lib-normals"/>
                    <input offset="2" semantic="TEXCOORD" source="#shape0-lib-map"/>
                    <p>0 0 0 1 0 1 4 0 2 0 1 3 4 1 4 5 1 5 2 2 6 7 2 7 8 2 8 2 3 9 8 3 10 13 3 11 0 4 12 5 4 13 7 4 14 0 5 15 7 5 16 2 5 17 1 6 18 0 6 19 2 6 20 1 7 21 2 7 22 13 7 23 3 8 24 5 8 25 4 8 26 3 9 27 4 9 28 15 9 29 6 10 30 17 10 31 8 10 32 6 11 33 8 11 34 7 11 35 3 12 36 6 12 37 7 12 38 3 13 39 7 13 40 5 13 41 15 14 42 17 14 43 6 14 44 15 15 45 6 15 46 3 15 47 9 16 48 10 16 49 4 16 50 9 17 51 4 17 52 1 17 53 11 18 54 13 18 55 8 18 56 11 19 57 8 19 58 12 19 59 9 20 60 11 20 61 12 20 62 9 21 63 12 21 64 10 21 65 1 22 66 13 22 67 11 22 68 1 23 69 11 23 70 9 23 71 14 24 72 15 24 73 4 24 74 14 25 75 4 25 76 10 25 77 16 26 78 12 26 79 8 26 80 16 27 81 8 27 82 17 27 83 14 28 84 10 28 85 12 28 86 14 29 87 12 29 88 16 29 89 15 30 90 14 30 91 16 30 92 15 31 93 16 31 94 17 31 95 9 32 96 18 32 97 19 32 98 9 33 99 19 33 100 10 33 101 11 34 102 12 34 103 20 34 104 11 35 105 20 35 106 25 35 107 9 36 108 10 36 109 12 36 110 9 37 111 12 37 112 11 37 113 18 38 114 9 38 115 11 38 116 18 39 117 11 39 118 25 39 119 14 40 120 10 40 121 19 40 122 14 41 123 19 41 124 27 41 125 16 42 126 29 42 127 20 42 128 16 43 129 20 43 130 12 43 131 14 44 132 16 44 133 12 44 134 14 45 135 12 45 136 10 45 137 27 46 138 29 46 139 16 46 140 27 47 141 16 47 142 14 47 143 21 48 144 22 48 145 19 48 146 21 49 147 19 49 148 18 49 149 23 50 150 25 50 151 20 50 152 23 51 153 20 51 154 24 51 155 21 52 156 23 52 157 24 52 158 21 53 159 24 53 160 22 53 161 18 54 162 25 54 163 23 54 164 18 55 165 23 55 166 21 55 167 26 56 168 27 56 169 19 56 170 26 57 171 19 57 172 22 57 173 28 58 174 24 58 175 20 58 176 28 59 177 20 59 178 29 59 179 26 60 180 22 60 181 24 60 182 26 61 183 24 61 184 28 61 185 27 62 186 26 62 187 28 62 188 27 63 189 28 63 190 29 63 191 14 64 192 27 64 193 31 64 194 14 65 195 31 65 196 32 65 197 16 66 198 34 66 199 35 66 200 16 67 201 35 67 202 29 67 203 14 68 204 32 68 205 34 68 206 14 69 207 34 69 208 16 69 209 27 70 210 14 70 211 16 70 212 27 71 213 16 71 214 29 71 215 30 72 216 32 72 217 31 72 218 30 73 219 31 73 220 39 73 221 33 74 222 41 74 223 35 74 224 33 75 225 35 75 226 34 75 227 30 76 228 33 76 229 34 76 230 30 77 231 34 77 232 32 77 233 39 78 234 41 78 235 33 78 236 39 79 237 33 79 238 30 79 239 26 80 240 36 80 241 31 80 242 26 81 243 31 81 244 27 81 245 28 82 246 29 82 247 35 82 248 28 83 249 35 83 250 37 83 251 26 84 252 28 84 253 37 84 254 26 85 255 37 85 256 36 85 257 27 86 258 29 86 259 28 86 260 27 87 261 28 87 262 26 87 263 38 88 264 39 88 265 31 88 266 38 89 267 31 89 268 36 89 269 40 90 270 37 90 271 35 90 272 40 91 273 35 91 274 41 91 275 38 92 276 36 92 277 37 92 278 38 93 279 37 93 280 40 93 281 39 94 282 38 94 283 40 94 284 39 95 285 40 95 286 41 95 287 3 96 288 15 96 289 43 96 290 3 97 291 43 97 292 44 97 293 6 98 294 46 98 295 47 98 296 6 99 297 47 99 298 17 99 299 3 100 300 44 100 301 46 100 302 3 101 303 46 101 304 6 101 305 15 102 306 3 102 307 6 102 308 15 103 309 6 103 310 17 103 311 42 104 312 44 104 313 43 104 314 42 105 315 43 105 316 48 105 317 45 106 318 49 106 319 47 106 320 45 107 321 47 107 322 46 107 323 42 108 324 45 108 325 46 108 326 42 109 327 46 109 328 44 109 329 48 110 330 49 110 331 45 110 332 48 111 333 45 111 334 42 111 335 14 112 336 32 112 337 43 112 338 14 113 339 43 113 340 15 113 341 16 114 342 17 114 343 47 114 344 16 115 345 47 115 346 34 115 347 14 116 348 16 116 349 34 116 350 14 117 351 34 117 352 32 117 353 15 118 354 17 118 355 16 118 356 15 119 357 16 119 358 14 119 359 30 120 360 48 120 361 43 120 362 30 121 363 43 121 364 32 121 365 33 122 366 34 122 367 47 122 368 33 123 369 47 123 370 49 123 371 30 124 372 32 124 373 34 124 374 30 125 375 34 125 376 33 125 377 48 126 378 30 126 379 33 126 380 48 127 381 33 127 382 49 127 383</p>
                </triangles>
                <triangles count="260" material="material1">
                    <input offset="0" semantic="VERTEX" source="#shape0-lib-vertices"/>
                    <input offset="1" semantic="NORMAL" source="#shape0-lib-normals"/>
                    <input offset="2" semantic="TEXCOORD" source="#shape0-lib-map"/>
                    <p>141 128 384 131 128 385 133 128 386 133 129 387 130 129 388 132 129 389 130 130 390 131 130 391 134 130 392 132 131 393 135 131 394 136 131 395 137 132 396 135 132 397 134 132 398 133 133 399 132 133 400 140 133 401 139 134 402 141 134 403 140 134 404 137 135 405 139 135 406 140 135 407 147 136 408 142 136 409 146 136 410 148 137 411 143 137 412 147 137 413 149 138 414 144 138 415 148 138 416 146 139 417 145 139 418 149 139 419 143 140 420 145 140 421 142 140 422 148 141 423 146 141 424 149 141 425 128 142 426 125 142 427 99 142 428 153 143 429 154 143 430 150 143 431 155 144 432 93 144 433 150 144 434 150 145 435 99 145 436 151 145 437 124 146 438 153 146 439 152 146 440 151 147 441 124 147 442 152 147 443 128 148 444 155 148 445 154 148 446 153 149 447 128 149 448 154 149 449 157 150 450 160 150 451 156 150 452 156 151 453 159 151 454 157 151 455 152 152 456 163 152 457 160 152 458 161 153 459 158 153 460 156 153 461 163 154 462 161 154 463 160 154 464 163 155 465 164 155 466 159 155 467 152 156 468 165 156 469 164 156 470 157 157 471 165 157 472 153 157 473 103 158 474 91 158 475 115 158 476 171 159 477 91 159 478 167 159 479 169 160 480 126 160 481 170 160 482 167 161 483 103 161 484 166 161 485 114 162 486 169 162 487 168 162 488 166 163 489 114 163 490 168 163 491 171 164 492 126 164 493 127 164 494 170 165 495 167 165 496 166 165 497 175 166 498 172 166 499 173 166 500 82 167 501 77 167 502 83 167 503 173 168 504 77 168 505 175 168 506 172 169 507 83 169 508 173 169 509 175 170 510 76 170 511 174 170 512 174 171 513 82 171 514 172 171 515 178 172 516 179 172 517 182 172 518 154 173 519 179 173 520 177 173 521 181 174 522 185 174 523 155 174 524 177 175 525 178 175 526 176 175 527 183 176 528 181 176 529 180 176 530 176 177 531 183 177 532 180 177 533 154 178 534 185 178 535 184 178 536 155 179 537 177 179 538 176 179 539 189 180 540 186 180 541 187 180 542 190 181 543 193 181 544 191 181 545 187 182 546 193 182 547 189 182 548 186 183 549 191 183 550 187 183 551 189 184 552 192 184 553 188 184 554 188 185 555 190 185 556 186 185 557 195 186 558 196 186 559 194 186 560 194 187 561 97 187 562 195 187 563 199 188 564 118 188 565 196 188 566 197 189 567 109 189 568 194 189 569 118 190 570 197 190 571 196 190 572 118 191 573 123 191 574 97 191 575 199 192 576 122 192 577 123 192 578 195 193 579 122 193 580 198 193 581 203 194 582 200 194 583 201 194 584 204 195 585 207 195 586 205 195 587 201 196 588 207 196 589 203 196 590 200 197 591 205 197 592 201 197 593 203 198 594 206 198 595 202 198 596 202 199 597 204 199 598 200 199 599 211 200 600 208 200 601 209 200 602 212 201 603 215 201 604 213 201 605 209 202 606 215 202 607 211 202 608 208 203 609 213 203 610 209 203 611 211 204 612 214 204 613 210 204 614 210 205 615 212 205 616 208 205 617 141 206 618 138 206 619 131 206 620 133 207 621 131 207 622 130 207 623 139 208 624 134 208 625 131 208 626 135 209 627 130 209 628 134 209 629 131 210 630 138 210 631 139 210 632 132 211 633 130 211 634 135 211 635 137 212 636 136 212 637 135 212 638 137 213 639 140 213 640 132 213 641 141 214 642 133 214 643 140 214 644 132 215 645 136 215 646 137 215 647 139 216 648 138 216 649 141 216 650 137 217 651 134 217 652 139 217 653 147 218 654 143 218 655 142 218 656 148 219 657 144 219 658 143 219 659 149 220 660 145 220 661 144 220 662 146 221 663 142 221 664 145 221 665 143 222 666 144 222 667 145 222 668 148 223 669 147 223 670 146 223 671 99 224 672 93 224 673 128 224 674 129 225 675 128 225 676 93 225 677 125 226 678 124 226 679 99 226 680 150 227 681 151 227 682 153 227 683 152 228 684 153 228 685 151 228 686 154 229 687 155 229 688 150 229 689 155 230 690 129 230 691 93 230 692 150 231 693 93 231 694 99 231 695 124 232 696 125 232 697 153 232 698 151 233 699 99 233 700 124 233 701 128 234 702 129 234 703 155 234 704 153 235 705 125 235 706 128 235 707 161 236 708 156 236 709 160 236 710 157 237 711 153 237 712 152 237 713 152 238 714 160 238 715 157 238 716 156 239 717 158 239 718 159 239 719 152 240 720 164 240 721 163 240 722 161 241 723 162 241 724 158 241 725 163 242 726 162 242 727 161 242 728 159 243 729 158 243 730 163 243 731 162 244 732 163 244 733 158 244 734 164 245 735 165 245 736 159 245 737 152 246 738 153 246 739 165 246 740 157 247 741 159 247 742 165 247 743 126 248 744 115 248 745 91 248 746 114 249 747 103 249 748 115 249 749 91 250 750 127 250 751 126 250 752 171 251 753 127 251 754 91 251 755 169 252 756 115 252 757 126 252 758 167 253 759 91 253 760 103 253 761 114 254 762 115 254 763 169 254 764 166 255 765 103 255 766 114 255 767 171 256 768 170 256 769 126 256 770 166 257 771 168 257 772 169 257 773 169 258 774 170 258 775 166 258 776 171 259 777 167 259 778 170 259 779 175 260 780 174 260 781 172 260 782 82 261 783 76 261 784 77 261 785 173 262 786 83 262 787 77 262 788 172 263 789 82 263 790 83 263 791 175 264 792 77 264 793 76 264 794 174 265 795 76 265 796 82 265 797 185 266 798 182 266 799 179 266 800 183 267 801 178 267 802 182 267 803 179 268 804 184 268 805 185 268 806 154 269 807 184 269 808 179 269 809 181 270 810 182 270 811 185 270 812 177 271 813 179 271 814 178 271 815 183 272 816 182 272 817 181 272 818 176 273 819 178 273 820 183 273 821 154 274 822 155 274 823 185 274 824 176 275 825 180 275 826 181 275 827 181 276 828 155 276 829 176 276 830 154 277 831 177 277 832 155 277 833 189 278 834 188 278 835 186 278 836 190 279 837 192 279 838 193 279 839 187 280 840 191 280 841 193 280 842 186 281 843 190 281 844 191 281 845 189 282 846 193 282 847 192 282 848 188 283 849 192 283 850 190 283 851 197 284 852 194 284 853 196 284 854 195 285 855 198 285 856 199 285 857 199 286 858 196 286 859 195 286 860 194 287 861 109 287 862 97 287 863 199 288 864 123 288 865 118 288 866 197 289 867 119 289 868 109 289 869 118 290 870 119 290 871 197 290 872 97 291 873 109 291 874 118 291 875 119 292 876 118 292 877 109 292 878 123 293 879 122 293 880 97 293 881 199 294 882 198 294 883 122 294 884 195 295 885 97 295 886 122 295 887 203 296 888 202 296 889 200 296 890 204 297 891 206 297 892 207 297 893 201 298 894 205 298 895 207 298 896 200 299 897 204 299 898 205 299 899 203 300 900 207 300 901 206 300 902 202 301 903 206 301 904 204 301 905 211 302 906 210 302 907 208 302 908 212 303 909 214 303 910 215 303 911 209 304 912 213 304 913 215 304 914 208 305 915 212 305 916 213 305 917 211 306 918 215 306 919 214 306 920 210 307 921 214 307 922 212 307 923 51 308 924 57 308 925 53 308 926 50 309 927 55 309 928 51 309 929 53 310 930 56 310 931 52 310 932 52 311 933 54 311 934 50 311 935 65 312 936 59 312 937 61 312 938 63 313 939 58 313 940 59 313 941 64 314 942 61 314 943 60 314 944 62 315 945 60 315 946 58 315 947 67 316 948 73 316 949 69 316 950 66 317 951 71 317 952 67 317 953 69 318 954 72 318 955 68 318 956 68 319 957 70 319 958 66 319 959 75 320 960 81 320 961 77 320 962 74 321 963 79 321 964 75 321 965 77 322 966 80 322 967 76 322 968 76 323 969 78 323 970 74 323 971 83 324 972 89 324 973 85 324 974 82 325 975 87 325 976 83 325 977 85 326 978 88 326 979 84 326 980 84 327 981 86 327 982 82 327 983 129 328 984 90 328 985 93 328 986 95 329 987 91 329 988 94 329 989 93 330 990 92 330 991 95 330 992 97 331 993 101 331 994 100 331 995 98 332 996 99 332 997 101 332 998 122 333 999 100 333 1000 125 333 1001 103 334 1002 107 334 1003 106 334 1004 104 335 1005 105 335 1006 107 335 1007 114 336 1008 106 336 1009 117 336 1010 121 337 1011 108 337 1012 111 337 1013 113 338 1014 109 338 1015 112 338 1016 111 339 1017 110 339 1018 113 339 1019 115 340 1020 117 340 1021 116 340 1022 102 341 1023 116 341 1024 105 341 1025 119 342 1026 121 342 1027 120 342 1028 112 343 1029 119 343 1030 120 343 1031 123 344 1032 125 344 1033 124 344 1034 96 345 1035 124 345 1036 99 345 1037 127 346 1038 129 346 1039 128 346 1040 94 347 1041 127 347 1042 128 347 1043 51 348 1044 55 348 1045 57 348 1046 50 349 1047 54 349 1048 55 349 1049 53 350 1050 57 350 1051 56 350 1052 52 351 1053 56 351 1054 54 351 1055 65 352 1056 63 352 1057 59 352 1058 63 353 1059 62 353 1060 58 353 1061 64 354 1062 65 354 1063 61 354 1064 62 355 1065 64 355 1066 60 355 1067 67 356 1068 71 356 1069 73 356 1070 66 357 1071 70 357 1072 71 357 1073 69 358 1074 73 358 1075 72 358 1076 68 359 1077 72 359 1078 70 359 1079 75 360 1080 79 360 1081 81 360 1082 74 361 1083 78 361 1084 79 361 1085 77 362 1086 81 362 1087 80 362 1088 76 363 1089 80 363 1090 78 363 1091 83 364 1092 87 364 1093 89 364 1094 82 365 1095 86 365 1096 87 365 1097 85 366 1098 89 366 1099 88 366 1100 84 367 1101 88 367 1102 86 367 1103 129 368 1104 126 368 1105 90 368 1106 95 369 1107 92 369 1108 91 369 1109 93 370 1110 90 370 1111 92 370 1112 97 371 1113 98 371 1114 101 371 1115 98 372 1116 96 372 1117 99 372 1118 122 373 1119 97 373 1120 100 373 1121 103 374 1122 104 374 1123 107 374 1124 104 375 1125 102 375 1126 105 375 1127 114 376 1128 103 376 1129 106 376 1130 121 377 1131 118 377 1132 108 377 1133 113 378 1134 110 378 1135 109 378 1136 111 379 1137 108 379 1138 110 379 1139 115 380 1140 114 380 1141 117 380 1142 102 381 1143 115 381 1144 116 381 1145 119 382 1146 118 382 1147 121 382 1148 112 383 1149 109 383 1150 119 383 1151 123 384 1152 122 384 1153 125 384 1154 96 385 1155 123 385 1156 124 385 1157 127 386 1158 126 386 1159 129 386 1160 94 387 1161 91 387 1162 127 387 1163</p>
                </triangles>
            </mesh>
        </geometry>
    </library_geometries>
    <library_visual_scenes>
        <visual_scene id="VisualSceneNode" name="VisualScene">
            <node id="node" name="node">
                <instance_geometry url="#shape0-lib">
                    <bind_material>
                        <technique_common>
                            <instance_material symbol="material0" target="#material0">
                                <bind_vertex_input semantic="UVSET0" input_semantic="TEXCOORD"/>
                            </instance_material>
                            <instance_material symbol="material1" target="#material1">
                                <bind_vertex_input semantic="UVSET0" input_semantic="TEXCOORD"/>
                            </instance_material>
                        </technique_common>
                    </bind_material>
                </instance_geometry>
            </node>
        </visual_scene>
    </library_visual_scenes>
    <scene>
        <instance_visual_scene url="#VisualSceneNode"/>
    </scene>
</COLLADA>
