<?xml version="1.0" encoding="UTF-8"?>
<COLLADA xmlns="http://www.collada.org/2005/11/COLLADASchema" version="1.4.1">
    <asset>
        <contributor>
            <author>VCGLab</author>
            <authoring_tool>VCGLib | MeshLab</authoring_tool>
        </contributor>
        <created>jue. jul. 3 13:10:24 2025 GMT</created>
        <modified>jue. jul. 3 13:10:24 2025 GMT</modified>
        <up_axis>Y_UP</up_axis>
    </asset>
    <library_images>
        <image id="texture0" name="texture0">
            <init_from>cardboard_box.png</init_from>
        </image>
    </library_images>
    <library_materials>
        <material id="material0" name="material0">
            <instance_effect url="#material0-fx" />
        </material>
    </library_materials>
    <library_effects>
        <effect id="material0-fx">
            <profile_COMMON>
                <newparam sid="texture0-surface">
                    <surface type="2D">
                        <init_from>texture0</init_from>
                        <format>R8G8B8</format>
                    </surface>
                </newparam>
                <newparam sid="texture0-sampler">
                    <sampler2D>
                        <source>texture0-surface</source>
                        <minfilter>LINEAR</minfilter>
                        <magfilter>LINEAR</magfilter>
                    </sampler2D>
                </newparam>
                <technique sid="common">
                    <blinn>
                        <diffuse>
                            <texture texture="texture0-sampler" texcoord="UVSET0" />
                        </diffuse>
                    </blinn>
                </technique>
            </profile_COMMON>
        </effect>
    </library_effects>
    <library_geometries>
        <geometry id="shape0-lib" name="shape0">
            <mesh>
                <source id="shape0-lib-positions" name="position">
                    <float_array id="shape0-lib-positions-array" count="54">-0.25 -0.2 0 -0.25 0 0
                        -0.25 -0.2 0.300001 0.25 -0.2 0 0 0 0 0 -0.2 0 0.25 -0.2 0.300001 0 -0.2
                        0.300001 0 0 0.300001 -0.25 0.2 0 0 0.2 0 -0.25 0.2 0.300001 0 0.2 0.300001
                        -0.25 0 0.300001 0.25 0.2 0 0.25 0 0 0.25 0.2 0.300001 0.25 0 0.300001</float_array>
                    <technique_common>
                        <accessor count="18" source="#shape0-lib-positions-array" stride="3">
                            <param name="X" type="float" />
                            <param name="Y" type="float" />
                            <param name="Z" type="float" />
                        </accessor>
                    </technique_common>
                </source>
                <source id="shape0-lib-normals" name="normal">
                    <float_array id="shape0-lib-normals-array" count="96">0 0 -1 0 0 -1 0 0 1 0 0 1
                        0 -1 0 0 -1 0 -1 0 0 -1 0 0 0 0 -1 0 0 -1 0 0 1 0 0 1 0 -1 0 0 -1 0 1 0 0 1
                        0 0 0 0 -1 0 0 -1 0 0 1 0 0 1 0 1 0 0 1 0 -1 0 0 -1 0 0 0 0 -1 0 0 -1 0 0 1
                        0 0 1 0 1 0 0 1 0 1 0 0 1 0 0</float_array>
                    <technique_common>
                        <accessor count="32" source="#shape0-lib-normals-array" stride="3">
                            <param name="X" type="float" />
                            <param name="Y" type="float" />
                            <param name="Z" type="float" />
                        </accessor>
                    </technique_common>
                </source>
                <source id="shape0-lib-map" name="map">
                    <float_array id="shape0-lib-map-array" count="192">0.589894 0.002 0.871072 0.002
                        0.871072 0.283178 0.589894 0.002 0.871072 0.283178 0.589894 0.283178
                        0.564357 0.319731 0.845535 0.319731 0.845535 0.60091 0.564357 0.319731
                        0.845535 0.60091 0.564357 0.60091 0.00200009 0.319731 0.002 0.0385531
                        0.564357 0.0385529 0.00200009 0.319731 0.564357 0.0385529 0.564357 0.319731
                        0.00200009 0.60091 0.00200009 0.319731 0.564357 0.319731 0.00200009 0.60091
                        0.564357 0.319731 0.564357 0.60091 0.589894 0.002 0.589894 0.283178 0.871072
                        0.283178 0.589894 0.002 0.871072 0.283178 0.871072 0.002 0.564357 0.319731
                        0.564357 0.60091 0.845535 0.60091 0.564357 0.319731 0.845535 0.60091
                        0.845535 0.319731 0.00200009 0.319731 0.564357 0.319731 0.564357 0.0385529
                        0.00200009 0.319731 0.564357 0.0385529 0.002 0.0385531 0.00200009 0.60091
                        0.564357 0.60091 0.564357 0.319731 0.00200009 0.60091 0.564357 0.319731
                        0.00200009 0.319731 0.589894 0.002 0.589894 0.283178 0.871072 0.283178
                        0.589894 0.002 0.871072 0.283178 0.871072 0.002 0.564357 0.319731 0.564357
                        0.60091 0.845535 0.60091 0.564357 0.319731 0.845535 0.60091 0.845535
                        0.319731 0.00200009 0.319731 0.564357 0.319731 0.564357 0.0385529 0.00200009
                        0.319731 0.564357 0.0385529 0.002 0.0385531 0.00200009 0.60091 0.564357
                        0.60091 0.564357 0.319731 0.00200009 0.60091 0.564357 0.319731 0.00200009
                        0.319731 0.589894 0.002 0.871072 0.002 0.871072 0.283178 0.589894 0.002
                        0.871072 0.283178 0.589894 0.283178 0.564357 0.319731 0.845535 0.319731
                        0.845535 0.60091 0.564357 0.319731 0.845535 0.60091 0.564357 0.60091
                        0.00200009 0.319731 0.002 0.0385531 0.564357 0.0385529 0.00200009 0.319731
                        0.564357 0.0385529 0.564357 0.319731 0.00200009 0.60091 0.00200009 0.319731
                        0.564357 0.319731 0.00200009 0.60091 0.564357 0.319731 0.564357 0.60091</float_array>
                    <technique_common>
                        <accessor count="96" source="#shape0-lib-map-array" stride="2">
                            <param name="U" type="float" />
                            <param name="V" type="float" />
                        </accessor>
                    </technique_common>
                </source>
                <vertices id="shape0-lib-vertices">
                    <input semantic="POSITION" source="#shape0-lib-positions" />
                </vertices>
                <triangles count="32" material="material0">
                    <input offset="0" semantic="VERTEX" source="#shape0-lib-vertices" />
                    <input offset="1" semantic="NORMAL" source="#shape0-lib-normals" />
                    <input offset="2" semantic="TEXCOORD" source="#shape0-lib-map" />
                    <p>0 0 0 1 0 1 4 0 2 0 1 3 4 1 4 5 1 5 2 2 6 7 2 7 8 2 8 2 3 9 8 3 10 13 3 11 0
                        4 12 5 4 13 7 4 14 0 5 15 7 5 16 2 5 17 1 6 18 0 6 19 2 6 20 1 7 21 2 7 22
                        13 7 23 3 8 24 5 8 25 4 8 26 3 9 27 4 9 28 15 9 29 6 10 30 17 10 31 8 10 32
                        6 11 33 8 11 34 7 11 35 3 12 36 6 12 37 7 12 38 3 13 39 7 13 40 5 13 41 15
                        14 42 17 14 43 6 14 44 15 15 45 6 15 46 3 15 47 9 16 48 10 16 49 4 16 50 9
                        17 51 4 17 52 1 17 53 11 18 54 13 18 55 8 18 56 11 19 57 8 19 58 12 19 59 9
                        20 60 11 20 61 12 20 62 9 21 63 12 21 64 10 21 65 1 22 66 13 22 67 11 22 68
                        1 23 69 11 23 70 9 23 71 14 24 72 15 24 73 4 24 74 14 25 75 4 25 76 10 25 77
                        16 26 78 12 26 79 8 26 80 16 27 81 8 27 82 17 27 83 14 28 84 10 28 85 12 28
                        86 14 29 87 12 29 88 16 29 89 15 30 90 14 30 91 16 30 92 15 31 93 16 31 94
                        17 31 95</p>
                </triangles>
            </mesh>
        </geometry>
    </library_geometries>
    <library_visual_scenes>
        <visual_scene id="VisualSceneNode" name="VisualScene">
            <node id="node" name="node">
                <instance_geometry url="#shape0-lib">
                    <bind_material>
                        <technique_common>
                            <instance_material symbol="material0" target="#material0">
                                <bind_vertex_input semantic="UVSET0" input_semantic="TEXCOORD" />
                            </instance_material>
                        </technique_common>
                    </bind_material>
                </instance_geometry>
            </node>
        </visual_scene>
    </library_visual_scenes>
    <scene>
        <instance_visual_scene url="#VisualSceneNode" />
    </scene>
</COLLADA>
